<svg xmlns="http://www.w3.org/2000/svg" width="64" height="64" viewBox="0 0 64 64" role="img" aria-label="Bicycle shop">
  <circle cx="32" cy="32" r="30" fill="#0f766e"/>
  <circle cx="32" cy="32" r="26" fill="#ccfbf1"/>
  <path d="M19 42.5a7.5 7.5 0 1 1 0-15 7.5 7.5 0 0 1 0 15Zm0-4a3.5 3.5 0 1 0 0-7 3.5 3.5 0 0 0 0 7Zm26 4a7.5 7.5 0 1 1 0-15 7.5 7.5 0 0 1 0 15Zm0-4a3.5 3.5 0 1 0 0-7 3.5 3.5 0 0 0 0 7Z" fill="#134e4a"/>
  <path d="M21.5 34.5h9.2l4.3-10.2h-6.4a2 2 0 0 1 0-4h9.4c.7 0 1.3.3 1.7.9.4.6.4 1.3.2 1.9l-1.3 3.1h4.9a2 2 0 0 1 1.8 1.1l4.6 9.2a2 2 0 0 1-3.6 1.8l-4-8.1h-5.4l-4.3 10.2a2 2 0 0 1-1.8 1.2h-9.3a2 2 0 1 1 0-4Z" fill="#0f766e"/>
  <path d="M37.5 18.5h5.8a2 2 0 1 1 0 4h-5.8a2 2 0 0 1 0-4Z" fill="#134e4a"/>
</svg>
